<?xml version="1.0" encoding="UTF-8" standalone="no"?>
<!DOCTYPE svg PUBLIC "-//W3C//DTD SVG 1.1//EN" "http://www.w3.org/Graphics/SVG/1.1/DTD/svg11.dtd">
<svg id="svg" version="1.1" xmlns="http://www.w3.org/2000/svg" xmlns:xlink="http://www.w3.org/1999/xlink" width="100%" height="auto"  preserveAspectRatio="xMidYMid meet" viewBox="0, 0, 400,324.48377581120945">
	<g id="svgg">
		<path id="path0" d="M156.883 57.208 C 156.211 57.880,156.332 97.920,157.007 98.180 C 158.088 98.594,178.519 98.399,178.796 97.971 C 178.940 97.748,179.108 92.524,179.169 86.364 C 179.238 79.306,179.403 75.012,179.614 74.756 C 180.136 74.125,212.428 74.183,216.369 74.823 C 225.856 76.363,229.067 80.025,229.047 89.286 C 229.028 98.607,225.788 101.980,214.861 104.053 C 211.489 104.693,211.799 104.321,210.393 109.416 C 210.220 110.041,209.624 112.086,209.068 113.961 C 208.511 115.836,207.934 117.808,207.784 118.344 C 207.635 118.880,207.302 120.066,207.044 120.980 L 206.575 122.641 210.024 123.040 C 218.495 124.020,221.323 124.736,225.177 126.878 C 227.570 128.208,230.844 130.988,230.844 131.689 C 230.844 131.939,230.959 132.143,231.099 132.143 C 232.165 132.143,233.769 137.420,233.755 140.882 C 233.725 147.999,231.070 152.305,224.785 155.425 L 221.653 156.981 203.440 157.143 L 185.227 157.305 185.227 166.558 L 185.227 175.812 202.273 175.800 C 220.688 175.786,228.370 175.250,232.305 173.703 C 232.662 173.562,233.685 173.223,234.578 172.949 C 250.917 167.929,258.354 157.796,257.380 141.883 C 256.532 128.022,249.776 118.564,237.662 114.276 C 236.238 113.772,236.199 113.721,236.102 112.235 L 236.003 110.710 238.050 109.759 C 244.718 106.661,248.659 101.880,250.912 94.156 C 251.604 91.785,251.570 81.247,250.863 78.571 C 248.761 70.628,242.885 63.996,235.065 60.741 C 234.083 60.332,232.841 59.809,232.305 59.580 C 225.685 56.741,226.875 56.818,189.843 56.818 C 164.944 56.818,157.181 56.910,156.883 57.208 M39.123 241.237 C 38.588 241.380,37.062 241.756,35.733 242.071 C 23.959 244.865,14.626 253.379,10.899 264.724 C 5.131 282.285,14.510 301.737,31.656 307.774 C 32.727 308.151,34.773 308.784,36.201 309.181 L 38.799 309.903 198.052 309.903 C 373.960 309.903,357.273 310.088,363.636 308.064 C 374.324 304.664,383.764 294.336,385.992 283.604 C 386.892 279.267,387.013 278.313,387.007 275.543 C 386.972 258.220,375.442 244.958,357.199 241.260 C 355.132 240.841,40.685 240.818,39.123 241.237 M182.374 259.253 C 182.412 263.896,182.448 267.782,182.455 267.888 C 182.462 267.995,183.040 267.554,183.740 266.908 C 189.267 261.805,198.950 263.461,200.787 269.824 C 201.225 271.339,201.294 273.237,201.222 281.674 L 201.136 291.721 196.798 291.812 C 191.041 291.932,191.558 292.828,191.558 282.742 C 191.558 272.201,191.177 271.104,187.512 271.104 C 183.376 271.104,182.468 273.423,182.468 283.973 L 182.468 291.529 181.412 291.722 C 180.832 291.828,178.677 291.871,176.623 291.818 L 172.890 291.721 172.805 271.591 C 172.759 260.519,172.793 251.274,172.880 251.046 C 173.001 250.730,174.144 250.653,177.672 250.722 L 182.305 250.812 182.374 259.253 M338.559 263.068 C 338.610 270.423,338.766 275.325,338.949 275.325 C 339.116 275.325,341.197 272.988,343.571 270.132 L 347.890 264.939 353.471 264.937 C 356.541 264.936,359.121 265.046,359.205 265.181 C 359.357 265.428,358.803 266.066,352.929 272.403 C 351.191 274.278,349.374 276.281,348.892 276.855 L 348.014 277.898 350.041 280.102 C 351.156 281.314,353.110 283.401,354.385 284.740 C 361.791 292.525,361.816 291.871,354.102 291.878 L 348.625 291.883 347.446 290.647 C 346.797 289.967,344.659 287.486,342.695 285.133 C 340.731 282.781,339.014 280.854,338.880 280.850 C 338.746 280.847,338.636 283.239,338.636 286.167 C 338.636 290.720,338.562 291.517,338.123 291.686 C 337.134 292.065,329.695 291.903,329.286 291.494 C 328.856 291.064,328.695 251.284,329.121 250.857 C 329.245 250.734,331.400 250.673,333.910 250.722 L 338.474 250.812 338.559 263.068 M129.124 253.391 C 131.618 256.146,130.919 259.934,127.607 261.607 C 124.043 263.408,120.130 260.945,120.130 256.901 C 120.130 251.989,125.838 249.762,129.124 253.391 M59.253 257.468 L 59.253 261.526 52.679 261.614 L 46.104 261.702 46.104 264.772 L 46.104 267.843 52.354 267.931 L 58.604 268.019 58.604 272.078 L 58.604 276.136 52.435 276.299 L 46.266 276.461 46.104 284.091 L 45.942 291.721 41.396 291.814 C 38.896 291.865,36.522 291.826,36.120 291.727 L 35.390 291.546 35.390 272.392 L 35.390 253.239 47.321 253.324 L 59.253 253.409 59.253 257.468 M247.131 253.717 C 255.838 255.562,258.163 266.715,250.554 270.135 L 249.321 270.688 250.391 271.082 C 255.246 272.871,256.945 275.519,256.758 281.006 C 256.571 286.506,254.186 289.617,249.184 290.887 C 246.029 291.688,228.772 292.313,227.137 291.686 C 226.677 291.509,226.623 289.504,226.623 272.368 L 226.623 253.247 235.795 253.252 C 242.439 253.256,245.564 253.384,247.131 253.717 M218.111 261.104 L 218.202 264.903 220.059 265.000 L 221.916 265.097 221.916 268.344 L 221.916 271.591 220.049 271.688 L 218.182 271.786 218.182 281.637 C 218.182 290.321,218.121 291.512,217.668 291.686 C 217.386 291.794,215.425 291.883,213.312 291.883 C 211.198 291.883,209.238 291.794,208.955 291.686 C 208.502 291.512,208.442 290.321,208.442 281.637 L 208.442 271.786 206.575 271.688 L 204.708 271.591 204.708 268.344 L 204.708 265.097 206.575 265.000 L 208.442 264.903 208.442 261.239 C 208.442 256.750,207.995 257.108,213.456 257.215 L 218.019 257.305 218.111 261.104 M237.083 260.987 C 236.774 261.184,236.689 262.182,236.758 264.799 L 236.851 268.344 238.312 268.453 C 242.423 268.758,244.805 267.228,244.805 264.282 C 244.805 262.041,243.517 261.039,240.636 261.039 C 239.387 261.039,238.170 260.967,237.932 260.880 C 237.695 260.793,237.312 260.841,237.083 260.987 M84.682 264.378 C 84.913 264.657,84.929 265.222,84.730 266.083 C 84.565 266.791,84.427 267.955,84.422 268.669 C 84.416 269.383,84.265 270.497,84.085 271.145 L 83.758 272.322 81.083 272.281 C 74.924 272.187,73.701 274.296,73.701 285.012 C 73.701 290.619,73.632 291.515,73.188 291.686 C 72.427 291.978,64.839 291.915,64.363 291.613 C 64.042 291.409,63.972 288.512,64.038 278.225 L 64.123 265.097 68.659 265.097 L 73.194 265.097 73.250 266.883 C 73.280 267.865,73.321 268.800,73.341 268.961 C 73.361 269.122,73.805 268.662,74.328 267.939 C 76.595 264.810,83.165 262.550,84.682 264.378 M108.125 265.311 C 112.850 267.511,116.341 273.534,115.849 278.641 L 115.747 279.708 105.763 279.794 L 95.779 279.880 95.786 280.768 C 95.825 285.596,102.068 287.815,105.964 284.385 L 107.439 283.087 110.862 284.425 C 114.693 285.923,114.696 285.927,113.231 287.841 C 109.668 292.494,100.252 293.700,93.582 290.356 C 85.843 286.476,84.207 275.143,90.434 268.542 C 92.336 266.526,93.196 265.973,96.591 264.585 C 99.242 263.501,105.018 263.865,108.125 265.311 M152.548 264.963 C 153.325 265.390,154.450 266.281,155.048 266.943 L 156.135 268.146 156.233 266.622 L 156.331 265.097 160.877 265.097 L 165.422 265.097 165.422 280.032 C 165.422 297.009,165.445 296.841,162.759 299.712 C 159.211 303.505,151.225 304.677,143.669 302.515 C 140.122 301.500,137.338 298.271,137.338 295.173 C 137.338 294.132,146.520 294.087,147.076 295.127 C 147.623 296.149,149.157 296.753,151.201 296.752 C 154.763 296.750,155.839 295.362,155.842 290.764 L 155.844 288.509 154.789 289.499 C 151.950 292.164,145.981 293.009,142.411 291.253 C 133.675 286.957,133.347 270.099,141.909 265.439 C 145.110 263.697,149.857 263.485,152.548 264.963 M280.375 264.533 C 280.723 264.715,281.730 265.209,282.615 265.630 C 296.538 272.263,290.326 292.982,274.675 292.111 C 258.301 291.200,255.315 270.946,270.617 264.583 C 272.212 263.919,279.139 263.884,280.375 264.533 M313.817 264.531 C 314.164 264.712,315.301 265.279,316.343 265.791 C 321.415 268.280,324.903 275.197,323.711 280.404 C 319.799 297.500,294.329 295.490,294.320 278.084 C 294.317 271.415,297.202 267.415,304.058 264.581 C 305.658 263.920,312.579 263.885,313.817 264.531 M130.117 278.225 C 130.184 288.512,130.114 291.409,129.793 291.613 C 129.316 291.915,121.729 291.978,120.968 291.686 C 120.427 291.478,120.146 265.676,120.680 265.143 C 120.803 265.019,122.958 264.958,125.468 265.008 L 130.032 265.097 130.117 278.225 M99.188 270.389 C 98.028 270.796,97.493 271.246,96.794 272.403 C 95.611 274.357,95.597 274.351,101.136 274.351 C 103.904 274.351,106.169 274.227,106.169 274.076 C 106.169 271.642,101.956 269.416,99.188 270.389 M148.540 272.265 C 147.267 272.929,146.429 273.701,146.429 274.212 C 146.429 274.437,146.246 274.682,146.023 274.756 C 145.039 275.084,145.507 281.295,146.620 282.680 C 151.582 288.856,159.642 281.921,155.925 274.674 C 154.532 271.957,151.209 270.873,148.540 272.265 M273.122 272.723 C 269.797 274.233,269.391 280.973,272.493 283.181 C 274.905 284.899,278.617 283.976,280.007 281.313 C 282.734 276.090,278.192 270.423,273.122 272.723 M306.494 272.801 C 304.061 274.089,303.034 278.152,304.346 281.293 C 305.615 284.331,310.798 284.991,312.797 282.370 C 316.804 277.117,312.030 269.869,306.494 272.801 M236.688 279.511 C 236.688 283.354,236.705 283.443,237.419 283.497 C 244.573 284.040,247.579 282.442,246.622 278.602 C 246.037 276.253,245.163 275.833,240.561 275.696 L 236.688 275.581 236.688 279.511 " stroke="none" fill="#141414" fill-rule="evenodd"></path>
		<path id="path1" d="M254.708 7.804 C 254.172 7.953,253.149 8.238,252.435 8.437 C 251.721 8.636,248.945 9.301,246.266 9.915 C 243.588 10.530,240.812 11.190,240.097 11.382 C 238.366 11.848,237.214 12.121,232.792 13.114 C 230.739 13.575,228.547 14.091,227.922 14.260 C 226.309 14.696,220.989 15.987,213.636 17.727 C 202.878 20.272,199.871 21.021,198.945 21.386 L 198.052 21.737 198.052 30.349 C 198.052 37.965,198.111 38.961,198.563 38.961 C 199.232 38.961,204.339 37.772,207.792 36.811 C 208.774 36.538,211.404 35.896,213.636 35.385 C 215.869 34.874,218.206 34.318,218.831 34.151 C 219.456 33.983,222.013 33.379,224.513 32.808 C 227.013 32.237,229.497 31.640,230.032 31.480 C 230.568 31.321,232.541 30.827,234.416 30.383 C 236.291 29.939,238.774 29.336,239.935 29.044 C 242.656 28.360,243.834 28.078,246.484 27.481 C 247.676 27.212,249.155 26.853,249.772 26.683 C 251.646 26.166,251.575 25.987,254.701 39.123 C 254.956 40.195,255.327 41.656,255.525 42.370 C 255.724 43.084,256.013 44.253,256.168 44.968 C 256.323 45.682,256.964 48.239,257.593 50.649 C 258.221 53.060,258.810 55.325,258.902 55.682 C 258.994 56.039,260.027 60.276,261.197 65.097 C 262.368 69.919,263.459 74.302,263.623 74.838 C 263.787 75.373,264.450 77.989,265.095 80.650 C 267.072 88.803,269.289 91.276,274.651 91.310 C 281.688 91.354,284.360 86.114,282.058 76.786 C 281.211 73.354,279.296 65.769,278.247 61.688 C 276.661 55.522,273.919 44.516,273.676 43.344 C 273.528 42.630,272.951 40.292,272.393 38.149 C 271.835 36.006,271.093 33.084,270.744 31.656 C 270.035 28.753,269.430 26.356,268.734 23.701 C 268.476 22.719,267.858 20.162,267.360 18.019 C 265.326 9.264,261.264 5.984,254.708 7.804 M278.592 103.542 C 272.608 105.969,272.052 109.700,275.662 123.214 C 275.805 123.750,276.515 126.599,277.239 129.545 C 277.963 132.492,278.694 135.341,278.863 135.877 C 279.032 136.412,279.558 138.531,280.032 140.584 C 280.920 144.437,281.923 148.424,282.645 150.974 C 283.584 154.289,287.310 170.052,287.401 171.096 C 287.499 172.214,287.484 172.228,285.714 172.660 C 282.678 173.403,281.539 173.689,280.276 174.027 C 279.606 174.206,277.451 174.728,275.487 175.186 C 273.523 175.644,269.213 176.672,265.909 177.471 C 262.606 178.269,259.172 179.081,258.279 179.275 C 257.386 179.468,256.291 179.742,255.844 179.884 C 255.398 180.025,253.644 180.456,251.948 180.842 C 248.645 181.592,239.024 183.902,233.442 185.285 C 226.980 186.886,224.351 189.452,224.351 194.157 C 224.351 200.162,229.594 203.839,235.930 202.277 C 237.508 201.888,240.041 201.301,241.558 200.971 C 243.076 200.642,246.071 199.931,248.214 199.392 C 250.357 198.853,253.718 198.028,255.682 197.559 C 261.571 196.153,265.921 195.124,268.669 194.487 C 270.097 194.156,272.070 193.667,273.052 193.401 C 274.034 193.135,276.299 192.609,278.084 192.231 C 279.870 191.853,282.062 191.335,282.955 191.079 C 283.847 190.823,285.893 190.309,287.500 189.937 C 289.107 189.564,292.248 188.813,294.481 188.268 C 296.713 187.723,299.050 187.169,299.675 187.037 C 303.614 186.209,306.275 183.581,306.980 179.824 C 307.257 178.349,306.570 174.888,303.961 164.610 C 303.259 161.843,302.453 158.628,302.170 157.468 C 301.888 156.307,300.840 152.143,299.842 148.214 C 298.267 142.013,297.112 137.356,296.096 133.117 C 293.810 123.575,289.906 108.677,289.472 107.838 C 287.428 103.887,282.521 101.949,278.592 103.542 M156.889 105.438 C 156.560 106.240,156.597 175.212,156.927 175.541 C 157.280 175.894,178.759 175.895,179.113 175.541 C 179.261 175.393,179.456 169.330,179.545 162.067 L 179.708 148.864 185.924 148.776 C 193.155 148.673,192.519 149.013,193.666 144.633 C 194.689 140.728,195.733 137.119,196.132 136.108 C 196.294 135.699,196.520 134.567,196.634 133.592 L 196.843 131.818 188.186 131.818 L 179.529 131.818 179.213 130.985 C 179.039 130.527,178.896 128.711,178.896 126.948 C 178.896 125.186,179.039 123.369,179.213 122.911 L 179.529 122.078 189.576 122.078 L 199.622 122.078 200.114 120.698 C 200.567 119.431,201.529 116.205,202.802 111.688 C 203.079 110.706,203.609 108.904,203.980 107.683 C 204.552 105.798,204.584 105.418,204.194 105.171 C 203.202 104.543,157.150 104.803,156.889 105.438 M200.487 193.165 L 198.214 193.722 198.128 202.277 C 198.035 211.427,198.053 211.531,199.641 211.031 C 200.106 210.885,201.933 210.434,203.701 210.029 C 209.495 208.701,212.338 205.820,212.338 201.274 C 212.338 195.119,207.107 191.540,200.487 193.165 " stroke="none" fill="#d82f1f" fill-rule="evenodd"></path>
		<path id="path2" d="M0.000 162.338 L 0.000 324.675 200.000 324.675 L 400.000 324.675 400.000 162.338 L 400.000 0.000 200.000 0.000 L 0.000 0.000 0.000 162.338 M261.936 8.010 C 265.004 9.512,266.144 11.393,267.579 17.329 C 268.643 21.729,269.068 23.407,269.480 24.838 C 269.635 25.373,270.281 28.003,270.917 30.682 C 271.553 33.360,272.212 35.990,272.381 36.526 C 272.550 37.062,273.208 39.692,273.844 42.370 C 275.020 47.322,275.463 49.069,275.985 50.812 C 276.145 51.347,276.730 53.685,277.286 56.006 C 278.957 62.998,280.727 70.204,281.032 71.266 C 281.135 71.623,281.343 72.427,281.494 73.052 C 281.645 73.677,282.141 75.649,282.596 77.435 C 284.874 86.364,281.825 91.732,274.513 91.671 C 269.970 91.633,265.260 87.442,265.260 83.438 C 265.260 83.271,264.812 81.340,264.265 79.148 C 263.718 76.956,262.837 73.336,262.307 71.104 C 261.778 68.872,261.222 66.607,261.073 66.071 C 260.202 62.940,259.977 62.073,258.469 56.006 C 256.941 49.856,256.613 48.522,255.363 43.344 C 254.716 40.666,254.061 38.109,253.907 37.662 C 253.753 37.216,253.312 35.463,252.926 33.766 C 252.541 32.070,251.997 29.839,251.718 28.809 L 251.210 26.935 250.037 27.129 C 249.391 27.236,245.649 28.103,241.721 29.058 C 237.792 30.012,231.729 31.474,228.247 32.307 C 224.765 33.139,220.162 34.265,218.019 34.809 C 215.877 35.353,212.370 36.205,210.227 36.703 C 208.084 37.201,204.505 38.045,202.273 38.579 C 195.166 40.279,194.364 40.422,192.045 40.408 C 184.285 40.359,180.548 31.200,185.976 25.533 C 187.413 24.033,188.813 23.388,192.695 22.439 C 194.302 22.046,196.640 21.450,197.890 21.114 C 199.140 20.777,202.427 19.969,205.195 19.317 C 207.963 18.665,211.907 17.711,213.961 17.198 C 216.015 16.685,219.083 15.948,220.779 15.561 C 225.832 14.408,226.007 14.367,229.383 13.536 C 231.169 13.097,233.799 12.486,235.227 12.180 C 236.656 11.873,238.190 11.500,238.636 11.350 C 239.632 11.015,243.970 9.964,247.890 9.108 C 249.497 8.757,251.396 8.308,252.110 8.110 C 252.825 7.912,254.055 7.614,254.843 7.446 C 255.632 7.279,256.363 7.055,256.467 6.948 C 256.865 6.538,260.285 7.203,261.936 8.010 M167.062 30.676 C 170.686 32.390,172.991 36.774,172.066 40.190 C 170.728 45.130,168.771 46.562,160.877 48.382 C 158.377 48.958,155.820 49.568,155.195 49.736 C 154.570 49.905,151.867 50.555,149.188 51.181 C 146.510 51.807,143.807 52.447,143.182 52.603 C 142.557 52.759,139.854 53.398,137.175 54.024 C 134.497 54.650,131.794 55.306,131.169 55.481 C 129.733 55.884,128.747 56.132,127.110 56.502 C 121.403 57.793,118.035 58.593,116.234 59.088 C 115.073 59.406,113.174 59.852,112.013 60.077 C 108.648 60.730,108.608 60.847,109.929 66.071 C 110.381 67.857,111.174 71.106,111.691 73.290 C 112.208 75.475,112.916 78.251,113.263 79.459 C 113.611 80.667,114.431 83.920,115.086 86.688 C 115.741 89.456,116.415 92.159,116.583 92.695 C 116.752 93.231,117.460 96.006,118.157 98.864 C 118.855 101.721,119.644 104.862,119.912 105.844 C 120.180 106.826,120.630 108.726,120.911 110.065 C 121.193 111.404,121.862 114.146,122.400 116.159 C 124.189 122.862,123.345 126.208,119.190 128.874 C 114.619 131.807,107.645 129.457,106.066 124.452 C 105.380 122.278,103.425 114.739,102.587 111.039 C 102.202 109.343,101.687 107.297,101.442 106.494 C 101.196 105.690,100.556 103.133,100.018 100.812 C 99.480 98.490,98.900 96.153,98.730 95.617 C 98.559 95.081,97.884 92.378,97.229 89.610 C 96.574 86.843,95.772 83.628,95.448 82.468 C 95.123 81.307,94.605 79.261,94.297 77.922 C 93.989 76.583,93.383 74.099,92.952 72.403 C 92.521 70.706,91.737 67.565,91.211 65.422 C 90.684 63.279,90.022 60.649,89.739 59.578 C 87.696 51.843,89.561 47.475,95.617 45.809 C 97.742 45.225,109.085 42.516,111.364 42.048 C 112.524 41.810,114.351 41.374,115.422 41.078 C 116.494 40.782,119.854 39.955,122.890 39.242 C 125.925 38.528,128.847 37.824,129.383 37.677 C 129.919 37.530,132.549 36.891,135.227 36.256 C 140.613 34.978,145.250 33.856,151.136 32.405 C 153.279 31.876,155.617 31.311,156.331 31.148 C 157.045 30.986,158.433 30.648,159.416 30.397 C 162.369 29.644,165.092 29.743,167.062 30.676 M225.065 56.843 C 235.414 58.945,246.752 66.297,248.924 72.315 C 249.038 72.631,249.375 73.255,249.673 73.701 C 251.739 76.801,252.682 87.502,251.437 93.715 C 250.018 100.795,243.960 108.215,237.773 110.452 C 236.750 110.822,236.154 112.091,236.546 113.065 C 236.637 113.290,237.984 113.976,239.540 114.590 C 247.300 117.649,253.918 124.541,256.238 131.981 C 257.579 136.279,258.256 146.421,257.494 150.797 C 255.575 161.817,247.038 170.115,233.929 173.703 C 233.393 173.850,232.094 174.205,231.042 174.493 C 226.216 175.812,222.537 176.040,203.343 176.210 L 184.771 176.373 184.584 175.606 C 184.480 175.183,184.437 170.820,184.487 165.909 L 184.578 156.981 202.760 156.818 C 222.861 156.639,221.553 156.777,225.825 154.388 C 230.348 151.858,232.484 148.580,233.173 143.109 C 234.209 134.884,229.828 128.568,220.942 125.476 C 218.277 124.548,211.375 123.404,208.350 123.387 C 205.957 123.374,205.883 123.168,206.980 119.574 C 207.866 116.669,207.985 116.252,208.912 112.825 C 209.749 109.729,211.079 105.418,211.425 104.679 C 211.682 104.129,212.245 103.925,214.394 103.604 C 220.965 102.623,226.183 99.769,227.736 96.307 C 229.967 91.331,229.140 83.125,226.059 79.680 C 222.293 75.469,219.412 75.000,197.295 75.000 L 179.870 75.000 179.825 75.893 C 179.800 76.384,179.690 81.680,179.581 87.662 L 179.383 98.539 167.857 98.539 L 156.331 98.539 156.247 77.922 C 156.201 66.583,156.233 57.123,156.318 56.899 C 156.525 56.358,222.409 56.304,225.065 56.843 M284.339 102.886 C 284.649 103.045,285.467 103.447,286.156 103.779 C 289.017 105.157,290.229 107.480,291.894 114.773 C 292.220 116.201,292.874 118.831,293.347 120.617 C 294.201 123.839,294.435 124.786,295.073 127.597 C 295.255 128.401,295.795 130.519,296.273 132.305 C 296.751 134.091,297.409 136.721,297.735 138.149 C 298.061 139.578,298.563 141.623,298.851 142.695 C 299.801 146.236,300.281 148.141,302.121 155.682 C 304.029 163.501,304.146 163.971,306.188 172.078 C 308.709 182.084,306.974 185.758,298.840 187.637 C 297.246 188.005,295.503 188.437,294.968 188.596 C 294.432 188.756,293.336 189.039,292.532 189.225 C 285.085 190.952,275.972 193.124,272.240 194.063 C 269.740 194.691,266.380 195.489,264.773 195.836 C 261.660 196.506,261.352 196.579,256.331 197.826 C 253.095 198.629,248.262 199.805,246.104 200.314 C 243.740 200.872,237.448 202.367,236.201 202.667 C 226.540 204.995,219.828 195.337,226.203 188.281 C 228.094 186.188,229.898 185.495,237.987 183.759 C 239.505 183.433,242.500 182.724,244.643 182.182 C 246.786 181.641,249.196 181.051,250.000 180.871 C 250.804 180.691,253.287 180.084,255.519 179.520 C 257.752 178.957,260.893 178.213,262.500 177.866 C 264.107 177.520,265.933 177.109,266.558 176.953 C 271.703 175.672,275.797 174.696,277.435 174.359 C 278.506 174.138,279.675 173.841,280.032 173.699 C 280.390 173.556,282.098 173.114,283.829 172.716 C 287.732 171.820,287.595 172.656,285.318 163.636 C 284.259 159.440,283.190 155.057,282.942 153.896 C 282.695 152.735,282.341 151.274,282.157 150.649 C 281.529 148.521,280.286 143.674,279.867 141.721 C 279.637 140.649,279.238 138.969,278.981 137.987 C 278.120 134.704,277.029 130.384,276.356 127.597 C 275.989 126.080,275.096 122.459,274.371 119.553 C 273.645 116.646,273.052 113.970,273.052 113.606 C 273.052 113.242,272.905 112.669,272.724 112.332 C 271.960 110.904,273.732 106.424,275.743 104.703 C 277.801 102.941,282.505 101.947,284.339 102.886 M204.782 105.763 C 204.645 106.834,203.675 110.309,200.907 119.643 L 200.137 122.240 189.841 122.326 L 179.545 122.412 179.545 126.756 C 179.545 132.053,178.519 131.532,188.842 131.477 C 193.352 131.453,197.176 131.516,197.340 131.617 C 197.654 131.811,197.470 132.639,195.855 138.312 C 195.321 140.187,194.706 142.451,194.487 143.344 C 194.268 144.237,193.800 145.881,193.447 146.997 L 192.804 149.026 186.534 149.026 C 181.116 149.026,180.237 149.096,180.067 149.540 C 179.959 149.822,179.870 155.870,179.870 162.979 C 179.870 174.466,179.813 175.926,179.357 176.102 C 178.686 176.359,157.353 176.359,156.682 176.102 C 156.146 175.896,155.852 105.295,156.385 104.762 C 156.504 104.643,167.477 104.545,180.770 104.545 L 204.938 104.545 204.782 105.763 M123.177 141.270 C 126.928 142.281,130.519 145.871,130.519 148.608 C 130.519 148.857,130.868 150.332,131.293 151.884 C 131.719 153.437,132.389 156.096,132.782 157.792 C 133.176 159.489,133.779 161.899,134.123 163.149 C 134.467 164.399,135.173 167.175,135.693 169.318 C 136.212 171.461,136.849 174.018,137.109 175.000 C 137.369 175.982,137.978 178.466,138.462 180.519 C 138.946 182.573,139.625 185.276,139.969 186.526 C 140.314 187.776,141.168 191.136,141.867 193.994 C 142.566 196.851,143.381 200.138,143.677 201.299 C 143.973 202.459,144.353 203.957,144.523 204.627 C 144.949 206.314,144.810 206.328,156.494 203.404 C 158.190 202.979,160.966 202.315,162.662 201.927 C 165.453 201.290,167.483 200.811,170.779 200.014 C 171.404 199.863,174.107 199.221,176.786 198.588 C 179.464 197.954,182.898 197.123,184.416 196.740 C 185.933 196.358,189.294 195.537,191.883 194.916 C 194.472 194.295,197.102 193.638,197.727 193.457 C 206.872 190.806,212.633 193.805,212.655 201.228 C 212.672 206.738,210.199 208.965,201.945 210.874 C 199.179 211.513,196.404 212.175,195.779 212.345 C 195.154 212.514,192.963 213.023,190.909 213.477 C 188.856 213.930,186.737 214.431,186.201 214.590 C 185.666 214.749,183.693 215.248,181.818 215.698 C 179.943 216.148,175.998 217.100,173.052 217.813 C 170.106 218.525,166.599 219.359,165.260 219.664 C 163.920 219.969,162.021 220.432,161.039 220.692 C 160.057 220.952,158.669 221.292,157.955 221.448 C 157.240 221.603,154.464 222.259,151.786 222.904 C 149.107 223.550,145.455 224.429,143.669 224.858 C 137.780 226.272,134.917 225.839,132.035 223.099 C 129.978 221.143,130.106 221.505,126.973 208.766 C 126.249 205.820,125.361 202.313,125.000 200.974 C 124.201 198.008,121.752 188.099,119.986 180.682 C 119.730 179.610,119.378 178.222,119.202 177.597 C 116.937 169.536,112.663 151.249,112.669 149.644 C 112.691 144.358,118.237 139.937,123.177 141.270 M358.279 241.095 C 359.529 241.376,361.063 241.722,361.688 241.865 C 369.143 243.566,377.001 249.258,381.658 256.331 C 383.241 258.734,383.676 259.569,385.341 263.393 C 388.124 269.785,388.005 281.380,385.087 288.149 C 380.615 298.524,372.849 305.841,363.376 308.606 C 361.823 309.060,360.041 309.609,359.416 309.828 C 357.976 310.330,41.588 310.584,38.866 310.084 C 31.404 308.715,27.422 307.047,22.565 303.260 C 15.320 297.610,11.270 290.964,9.093 281.150 C 7.720 274.963,9.482 265.046,13.098 258.604 C 18.365 249.219,26.380 243.539,37.825 241.080 C 41.082 240.381,355.164 240.395,358.279 241.095 M173.052 271.276 L 173.052 291.577 177.354 291.487 L 181.656 291.396 181.842 283.442 C 182.093 272.741,182.980 270.779,187.566 270.779 C 191.668 270.779,192.004 271.624,192.205 282.468 L 192.370 291.396 196.696 291.487 L 201.022 291.578 200.891 281.260 C 200.795 273.730,200.641 270.610,200.323 269.716 C 198.106 263.494,188.809 262.435,183.565 267.806 C 182.604 268.790,181.812 269.387,181.804 269.132 C 181.796 268.877,181.802 264.688,181.818 259.821 L 181.846 250.974 177.449 250.974 L 173.052 250.974 173.052 271.276 M329.374 251.370 C 329.286 251.599,329.253 260.698,329.299 271.591 L 329.383 291.396 333.766 291.396 L 338.149 291.396 338.238 285.795 C 338.348 278.870,338.249 278.942,341.721 283.276 C 342.435 284.168,343.482 285.410,344.048 286.036 C 344.614 286.663,345.405 287.614,345.807 288.149 C 346.208 288.685,347.053 289.671,347.685 290.341 L 348.833 291.558 354.314 291.558 C 357.553 291.558,359.750 291.435,359.686 291.257 C 359.627 291.090,358.782 290.104,357.810 289.065 C 353.346 284.294,351.311 282.121,349.393 280.078 L 347.326 277.876 348.111 277.006 C 349.267 275.725,356.138 268.231,357.539 266.722 L 358.747 265.422 353.513 265.333 C 347.635 265.232,348.409 264.946,345.801 268.182 C 345.009 269.164,344.206 270.114,344.015 270.292 C 343.825 270.471,343.282 271.128,342.809 271.753 C 342.336 272.378,341.675 273.182,341.339 273.539 C 341.004 273.896,340.394 274.663,339.985 275.244 C 338.358 277.553,338.326 277.348,338.234 263.718 L 338.149 251.136 333.841 251.046 C 330.574 250.977,329.494 251.055,329.374 251.370 M124.007 252.246 C 120.967 253.205,119.668 256.277,121.108 259.099 C 122.106 261.055,124.906 262.481,126.368 261.779 C 126.776 261.583,127.351 261.347,127.644 261.254 C 128.607 260.950,129.943 258.829,130.111 257.335 C 130.482 254.049,127.135 251.259,124.007 252.246 M36.095 253.537 C 35.802 253.718,35.729 258.336,35.793 272.586 L 35.877 291.396 40.822 291.486 L 45.767 291.575 45.854 283.856 L 45.942 276.136 52.029 276.048 L 58.117 275.960 58.117 272.078 L 58.117 268.196 52.029 268.108 L 45.942 268.019 45.942 264.773 L 45.942 261.526 52.354 261.438 L 58.766 261.350 58.766 257.502 L 58.766 253.654 57.417 253.439 C 55.600 253.148,36.582 253.236,36.095 253.537 M227.655 253.498 C 227.368 253.594,227.273 258.350,227.273 272.627 L 227.273 291.629 235.633 291.442 C 252.535 291.063,256.479 289.028,256.485 280.682 C 256.488 276.027,254.391 272.746,250.802 271.790 C 248.509 271.180,248.036 270.617,249.430 270.157 C 257.377 267.534,256.095 256.609,247.565 254.262 C 244.611 253.450,229.535 252.871,227.655 253.498 M209.020 261.282 L 208.929 265.097 206.899 265.194 L 204.870 265.291 204.870 268.344 L 204.870 271.398 206.899 271.494 L 208.929 271.591 209.014 281.575 L 209.100 291.558 213.312 291.558 L 217.523 291.558 217.609 281.575 L 217.695 271.591 219.724 271.494 L 221.753 271.398 221.753 268.344 L 221.753 265.291 219.724 265.194 L 217.695 265.097 217.603 261.282 L 217.512 257.468 213.312 257.468 L 209.112 257.468 209.020 261.282 M242.827 260.814 C 244.470 261.389,245.223 262.601,245.179 264.594 C 245.108 267.705,243.725 268.661,239.286 268.666 L 236.526 268.669 236.434 264.955 C 236.383 262.912,236.415 261.049,236.505 260.815 C 236.715 260.266,241.260 260.265,242.827 260.814 M80.357 264.514 C 78.162 264.808,74.811 267.260,74.031 269.145 C 73.270 270.980,72.727 270.376,72.727 267.695 L 72.727 265.260 68.503 265.260 L 64.278 265.260 64.363 278.328 L 64.448 291.396 68.750 291.487 L 73.052 291.577 73.052 284.924 C 73.052 274.169,74.783 271.470,81.466 271.808 L 83.604 271.916 84.017 268.368 C 84.523 264.029,84.461 263.964,80.357 264.514 M98.864 264.496 C 97.429 264.642,97.118 264.753,94.372 266.110 C 84.720 270.876,84.626 285.741,94.220 290.074 C 95.345 290.583,96.608 291.156,97.026 291.349 C 98.149 291.867,105.756 291.815,107.143 291.280 C 110.440 290.009,113.640 287.549,113.635 286.290 C 113.634 286.060,112.249 285.394,110.517 284.790 L 107.400 283.704 106.379 284.648 C 102.398 288.329,95.108 285.803,95.518 280.886 L 95.617 279.708 105.601 279.622 C 114.831 279.543,115.584 279.494,115.578 278.973 C 115.469 269.340,108.718 263.493,98.864 264.496 M145.292 264.570 C 141.812 265.219,138.475 268.156,137.316 271.591 C 137.075 272.305,136.739 273.078,136.570 273.308 C 136.096 273.954,136.167 281.843,136.659 283.144 C 137.600 285.634,138.868 287.822,140.045 288.985 C 144.014 292.903,151.330 292.734,154.979 288.639 C 156.192 287.278,156.494 287.622,156.489 290.360 C 156.482 293.588,155.882 295.437,154.547 296.347 C 152.433 297.788,146.753 297.023,146.753 295.297 C 146.753 294.881,146.051 294.805,142.208 294.805 C 139.708 294.805,137.662 294.933,137.662 295.089 C 137.662 304.961,161.070 306.170,164.351 296.468 C 164.636 295.627,164.779 291.019,164.854 280.276 L 164.960 265.260 160.889 265.260 L 156.818 265.260 156.818 266.864 C 156.818 269.017,156.377 269.158,154.898 267.480 C 152.641 264.919,149.128 263.855,145.292 264.570 M272.565 264.567 C 263.869 265.751,258.619 275.812,262.480 283.892 C 267.198 293.766,281.995 294.546,287.806 285.227 C 289.056 283.224,289.416 282.181,290.090 278.622 C 290.239 277.836,289.758 275.068,289.250 273.782 C 287.750 269.988,285.687 267.640,282.468 266.061 C 281.485 265.579,280.453 265.071,280.173 264.932 C 279.412 264.553,274.422 264.314,272.565 264.567 M306.331 264.496 C 304.899 264.641,304.596 264.750,301.831 266.110 C 292.107 270.892,292.277 285.566,302.110 290.223 C 303.003 290.645,304.079 291.153,304.502 291.350 C 306.422 292.246,312.312 291.771,315.025 290.502 C 325.621 285.543,326.214 271.096,316.026 266.115 C 314.979 265.604,313.894 265.071,313.614 264.932 C 312.975 264.614,308.064 264.320,306.331 264.496 M121.104 278.409 L 121.104 291.558 125.325 291.558 L 129.545 291.558 129.545 278.409 L 129.545 265.260 125.325 265.260 L 121.104 265.260 121.104 278.409 M103.784 270.338 C 105.210 271.015,106.577 272.780,106.437 273.765 C 106.332 274.506,106.282 274.514,101.161 274.603 C 95.459 274.702,95.232 274.634,95.908 273.028 C 97.130 270.121,100.734 268.890,103.784 270.338 M154.555 272.159 C 158.422 274.776,157.968 282.781,153.831 284.933 C 148.259 287.833,142.763 280.541,145.864 274.363 C 147.327 271.446,151.819 270.307,154.555 272.159 M278.811 272.614 C 282.220 275.154,281.760 282.163,278.070 283.914 C 272.646 286.487,267.671 279.795,270.866 274.222 C 272.284 271.749,276.505 270.895,278.811 272.614 M312.240 272.606 C 313.659 273.665,314.592 275.838,314.592 278.084 C 314.592 286.241,303.983 286.907,303.332 278.792 C 302.892 273.307,308.222 269.606,312.240 272.606 M243.769 275.370 C 247.718 276.331,248.767 281.430,245.345 283.036 C 244.870 283.259,244.151 283.593,243.748 283.779 C 243.344 283.965,241.555 284.074,239.770 284.022 L 236.526 283.929 236.432 280.195 C 236.294 274.750,236.148 275.000,239.473 275.000 C 240.997 275.000,242.931 275.167,243.769 275.370 " stroke="none" fill="#fbfbfb" fill-rule="evenodd">
			
		</path>
		<path id="path3" d="M196.916 21.641 C 186.949 23.751,183.929 26.005,183.929 31.331 C 183.929 34.886,184.802 36.825,187.123 38.424 C 189.829 40.287,192.132 40.578,196.591 39.617 L 198.214 39.267 198.214 30.348 C 198.214 24.593,198.099 21.442,197.890 21.466 C 197.711 21.487,197.273 21.566,196.916 21.641 M159.903 30.515 C 157.278 31.282,142.998 34.750,136.526 36.192 C 135.276 36.470,133.523 36.910,132.630 37.169 C 131.737 37.427,129.765 37.929,128.247 38.283 C 126.729 38.638,123.076 39.507,120.130 40.215 C 117.183 40.922,113.677 41.749,112.338 42.051 C 110.998 42.353,107.974 43.094,105.618 43.698 C 103.261 44.301,99.929 45.099,98.213 45.471 C 92.152 46.784,89.310 49.491,89.197 54.058 C 89.147 56.089,89.814 59.096,93.627 74.026 C 94.060 75.722,94.637 78.060,94.909 79.221 C 95.579 82.081,96.666 86.433,97.301 88.799 C 97.589 89.870,98.007 91.550,98.230 92.532 C 98.453 93.515,98.962 95.487,99.360 96.916 C 99.758 98.344,100.273 100.463,100.504 101.623 C 100.937 103.793,102.163 108.612,103.231 112.338 C 103.563 113.498,103.933 115.154,104.052 116.017 C 104.171 116.880,104.486 118.195,104.751 118.939 C 105.016 119.683,105.373 121.018,105.544 121.904 C 107.636 132.776,123.052 132.271,123.052 121.331 C 123.052 119.930,121.270 112.423,116.217 92.532 C 115.650 90.300,114.911 87.232,114.574 85.714 C 114.237 84.196,113.602 81.640,113.163 80.032 C 112.192 76.483,109.214 64.259,108.918 62.612 C 108.684 61.307,109.520 60.066,110.633 60.064 C 110.946 60.063,113.831 59.400,117.045 58.590 C 120.260 57.780,124.592 56.760,126.673 56.323 C 128.754 55.885,130.817 55.390,131.258 55.223 C 131.698 55.055,133.722 54.533,135.754 54.063 C 144.032 52.145,148.229 51.153,155.032 49.502 C 158.961 48.549,163.015 47.590,164.042 47.372 C 172.234 45.629,174.622 36.240,168.038 31.656 C 166.051 30.272,162.458 29.768,159.903 30.515 M117.621 142.371 C 113.225 144.602,111.983 149.033,113.924 155.563 C 114.262 156.700,114.852 159.018,115.237 160.714 C 115.621 162.411,116.135 164.456,116.380 165.260 C 116.625 166.063,117.149 168.182,117.544 169.968 C 117.939 171.753,118.601 174.406,119.014 175.861 C 119.428 177.317,119.993 179.582,120.271 180.894 C 120.549 182.206,121.160 184.667,121.629 186.364 C 122.097 188.060,122.666 190.325,122.892 191.396 C 123.118 192.468,123.985 195.974,124.819 199.188 C 125.653 202.403,126.466 205.617,126.625 206.331 C 131.047 226.188,132.373 227.299,147.354 223.702 C 151.220 222.773,157.597 221.234,161.526 220.281 C 165.455 219.329,171.226 217.951,174.351 217.220 C 177.476 216.489,181.713 215.457,183.766 214.927 C 185.820 214.397,190.052 213.352,193.172 212.606 C 196.291 211.859,198.666 211.189,198.448 211.117 C 198.150 211.017,198.052 208.865,198.052 202.408 C 198.052 197.691,197.988 193.831,197.910 193.831 C 197.683 193.831,183.559 197.189,179.545 198.198 C 178.563 198.444,176.299 198.958,174.513 199.339 C 172.727 199.720,170.609 200.231,169.805 200.475 C 168.366 200.912,165.008 201.738,160.552 202.751 C 159.302 203.036,157.476 203.487,156.494 203.755 C 155.511 204.022,154.050 204.365,153.247 204.517 C 151.535 204.839,148.955 205.452,147.542 205.872 C 144.485 206.781,144.863 207.754,139.085 184.091 C 138.105 180.073,137.070 175.984,136.788 175.005 C 136.505 174.025,135.796 171.250,135.212 168.836 C 134.628 166.423,133.643 162.403,133.023 159.903 C 132.402 157.403,131.644 154.334,131.339 153.084 C 129.716 146.445,128.858 144.768,126.055 142.757 C 124.015 141.293,120.099 141.114,117.621 142.371 " stroke="none" fill="#ed7f0d" fill-rule="evenodd">
			
		</path>
		
		
	</g>
</svg>